# xmcd
#
# Track frame offsets:
#	150
#	9565
#	18170
#	29110
#	42712
#	54005
#	66865
#	77770
#	82772
#	93265
#	109007
#	128550
#	139365
#	146702
#	158790
#
# Disc length: 2182 seconds
#
# Revision: 2
# Processed by: cddbd v1.5.1PL0 Copyright (c) Steve Scherf et al.
# Submitted via: dBpowerAMP V4.0
#
DISCID=bf08840f
DTITLE=Forgotten Rebels - Nobody's Heros
DYEAR=2000
DGENRE=PunkRock
TTITLE0=Hockey Nite
TTITLE1=The American In Me
TTITLE2=No Place To Hide
TTITLE3=Highschool Hookers
TTITLE4=Dick Wart
TTITLE5=Zeros
TTITLE6=New Look
TTITLE7=Hey Little Girl
TTITLE8=Fool Me Once
TTITLE9=Crackin' Me Up
TTITLE10=Wasted
TTITLE11=Baby Baby
TTITLE12=Ready To Beat U
TTITLE13=Shrink Dink
TTITLE14=Hidden_Track
EXTD=Forgotten Rebels - Nobody's Heros\n\n2000, Other Peoples Music\nwww.forgottenrebels.com\n\nand it is PunkRock dammit!!!
EXTT0=
EXTT1=
EXTT2=
EXTT3=
EXTT4=
EXTT5=
EXTT6=
EXTT7=
EXTT8=
EXTT9=
EXTT10=
EXTT11=
EXTT12=
EXTT13=
EXTT14=
PLAYORDER=
